<?xml version="1.0" encoding="UTF-8"?>
<svg width="512" height="512" viewBox="0 0 512 512" fill="none" xmlns="http://www.w3.org/2000/svg">
  <g filter="url(#glow)">
    <path d="M339.4 78.2c-18.1-20.3-47.5-20.3-65.6 0-13.6 15.2-13.6 39.9 0 55.1 18.1 20.3 47.5 20.3 65.6 0 13.6-15.2 13.6-39.9 0-55.1z" fill="#FFE5D9"/>
    <path d="M238.2 78.2c-18.1-20.3-47.5-20.3-65.6 0-13.6 15.2-13.6 39.9 0 55.1 18.1 20.3 47.5 20.3 65.6 0 13.6-15.2 13.6-39.9 0-55.1z" fill="#FFE5D9"/>
    <path d="M390.6 167.8c-18.1-20.3-47.5-20.3-65.6 0-13.6 15.2-13.6 39.9 0 55.1 18.1 20.3 47.5 20.3 65.6 0 13.6-15.2 13.6-39.9 0-55.1z" fill="#FFE5D9"/>
    <path d="M187 167.8c-18.1-20.3-47.5-20.3-65.6 0-13.6 15.2-13.6 39.9 0 55.1 18.1 20.3 47.5 20.3 65.6 0 13.6-15.2 13.6-39.9 0-55.1z" fill="#FFE5D9"/>
    <path d="M288.8 257.4c-24.2-27.1-63.4-27.1-87.6 0-18.1 20.3-18.1 53.2 0 73.5 24.2 27.1 63.4 27.1 87.6 0 18.1-20.3 18.1-53.2 0-73.5z" fill="#FFE5D9"/>
  </g>
  <defs>
    <filter id="glow" x="-20" y="-20" width="552" height="552" filterUnits="userSpaceOnUse">
      <feGaussianBlur stdDeviation="4" result="blur"/>
      <feFlood flood-color="#FFA07A" flood-opacity="0.5"/>
      <feComposite in2="blur" operator="in"/>
      <feComposite in="SourceGraphic"/>
    </filter>
  </defs>
</svg>
</svg>
